<svg id="a5c16198-98a1-478b-8909-43624583dcf2" xmlns="http://www.w3.org/2000/svg" xmlns:xlink="http://www.w3.org/1999/xlink" viewBox="0 0 735.35 526.2"><defs><style>.cls-1,.cls-16,.cls-19,.cls-20,.cls-24,.cls-28,.cls-48,.cls-49,.cls-50,.cls-51,.cls-52,.cls-53,.cls-55{fill:none;}.cls-2{fill:#eaf4f3;}.cls-3{fill:#fff;}.cls-4{fill:#8fbcb7;}.cls-5{fill:#32539b;}.cls-6{fill:#c0ede9;}.cls-7{fill:#a9d8d2;}.cls-8{fill:#def9f6;}.cls-9{fill:#f4725c;}.cls-10{fill:#de5640;}.cls-11{fill:#ffa800;}.cls-12{fill:#56173c;}.cls-13{fill:#98cbcc;}.cls-14{fill:#5e0231;}.cls-15{fill:#721e4c;}.cls-16{stroke:#de5640;}.cls-16,.cls-20,.cls-52,.cls-53,.cls-55{stroke-linecap:round;}.cls-16,.cls-19,.cls-20,.cls-24,.cls-28,.cls-48,.cls-49,.cls-50,.cls-51,.cls-55{stroke-miterlimit:11.92;}.cls-16,.cls-20{stroke-width:0.96px;}.cls-17{clip-path:url(#clip-path);}.cls-18{opacity:0.5;}.cls-19{stroke:#98cbcc;stroke-width:1.28px;}.cls-20{stroke:#c1473a;}.cls-21{fill:#bad0d8;}.cls-22{fill:#849ea5;}.cls-23{fill:#9bbcc4;}.cls-24,.cls-28{stroke:#9bbcc4;}.cls-24{stroke-width:1.43px;}.cls-25{fill:#7e9fa5;}.cls-26{fill:#708d91;}.cls-27{fill:#86aeb2;}.cls-28{stroke-width:4.3px;}.cls-29{fill:#dd4574;}.cls-30{fill:#9eccc9;}.cls-31{clip-path:url(#clip-path-2);}.cls-32{fill:#05076b;}.cls-33{clip-path:url(#clip-path-3);}.cls-34{clip-path:url(#clip-path-4);}.cls-35{fill:#84b2ab;}.cls-36{clip-path:url(#clip-path-5);}.cls-37{opacity:0.3;}.cls-38{clip-path:url(#clip-path-6);}.cls-39{opacity:0.6;}.cls-40{clip-path:url(#clip-path-7);}.cls-41{opacity:0.9;}.cls-42{clip-path:url(#clip-path-8);}.cls-43{clip-path:url(#clip-path-9);}.cls-44{clip-path:url(#clip-path-10);}.cls-45{clip-path:url(#clip-path-11);}.cls-46{clip-path:url(#clip-path-12);}.cls-47{clip-path:url(#clip-path-13);}.cls-48,.cls-49,.cls-50,.cls-51,.cls-52{stroke:#9eccc9;}.cls-48{stroke-width:0.64px;}.cls-49,.cls-53{stroke-width:1.19px;}.cls-50{stroke-width:1.12px;}.cls-51,.cls-52{stroke-width:0.55px;}.cls-52,.cls-53{stroke-linejoin:round;}.cls-53{stroke:#dd4574;}.cls-54{fill:#526684;}.cls-55{stroke:#526684;stroke-width:3.58px;}</style><clipPath id="clip-path"><rect class="cls-1" x="308.66" y="237.18" width="74.85" height="62.56"/></clipPath><clipPath id="clip-path-2"><rect class="cls-1" x="549.93" y="391.68" width="18.35" height="2.05"/></clipPath><clipPath id="clip-path-3"><rect class="cls-1" x="589.84" y="391.68" width="18.35" height="2.05"/></clipPath><clipPath id="clip-path-4"><rect class="cls-1" x="629.77" y="391.68" width="18.35" height="2.05"/></clipPath><clipPath id="clip-path-5"><rect class="cls-1" x="464.1" y="207.42" width="14.3" height="14.3"/></clipPath><clipPath id="clip-path-6"><rect class="cls-1" x="485.68" y="207.42" width="14.3" height="14.3"/></clipPath><clipPath id="clip-path-7"><rect class="cls-1" x="507.27" y="207.42" width="14.3" height="14.3"/></clipPath><clipPath id="clip-path-8"><rect class="cls-1" x="266.99" y="331.74" width="14.3" height="14.3"/></clipPath><clipPath id="clip-path-9"><rect class="cls-1" x="288.57" y="331.74" width="14.3" height="14.3"/></clipPath><clipPath id="clip-path-10"><rect class="cls-1" x="310.16" y="331.74" width="14.3" height="14.3"/></clipPath><clipPath id="clip-path-11"><rect class="cls-1" x="367.69" y="101.69" width="7.8" height="7.8"/></clipPath><clipPath id="clip-path-12"><rect class="cls-1" x="379.46" y="101.69" width="7.8" height="7.8"/></clipPath><clipPath id="clip-path-13"><rect class="cls-1" x="391.25" y="101.69" width="7.8" height="7.8"/></clipPath></defs><g id="g123"><g id="g129"><path id="path131" class="cls-2" d="M63.17,498.74S-9.5,447,4,353,125.06,250.57,171.37,206.72C229.24,151.9,169,21.29,295.53,2.54,421-16.07,443.07,154.88,540,169.94c169.08,26.27,243.48,158.17,150.48,328.8"/></g><g id="g133"><path id="path135" class="cls-2" d="M174.82,130.74c-.71,15.15-5.16,40.51-18.91,59.17-12.79,17.33-31.45,27.07-41.44,20.39-6-4-3.23-17.88,5.83-42.1s6.37-60.76,29.8-60.76c20.62,0,25.12,14.89,24.72,23.3"/></g><g id="g137"><path id="path139" class="cls-2" d="M593.26,122.21c-9.19,8.52-16.77,44.2,9.43,51.26,36.9,9.92,58.29,30.51,73.89,25.3,14.38-4.83,20.78-34-6.45-57.66s-58.63-35.81-76.89-18.9"/></g><g id="g141"><path id="path143" class="cls-3" d="M561.43,441.4c0,3.89-55.28,36.83-55.28,36.83l-105.55,23-13.82.22-1.61-33.86L338.54,501.5H264.2s61.69-92.63,83.85-130.92c15.29-26.34,40.84-69.25,40.84-69.25l84.19-28.57,65.66,33.73s15.58,40.39,17,47.82,5.67,83.26,5.67,87.08"/></g><g id="g145"><path id="path147" class="cls-4" d="M378.57,371.28l9.15,125.21a1,1,0,0,1-1,1.09h0a1,1,0,0,1-1.09-.89.13.13,0,0,1,0-.06h0Z"/></g><g id="g149"><path id="path151" class="cls-5" d="M376,465.3l-1.9,3a2.69,2.69,0,0,1-3.71.87h0l-63.2-39.6a2.69,2.69,0,0,1-.85-3.71l1.9-3.05A2.73,2.73,0,0,1,312,422l63.19,39.61a2.7,2.7,0,0,1,.85,3.72"/></g><g id="g153"><path id="path155" class="cls-6" d="M294.32,398.43c13.43,8.42,21.69,19.35,18.45,24.58s-16.72,2.53-30.16-5.89-21.67-19.35-18.44-24.57,16.74-2.52,30.15,5.88"/></g><g id="g157"><path id="path159" class="cls-5" d="M290.89,403.93c-10.39-6.45-20.82-9.93-27.5-9.56l-2-4.13-4.43,7.08c-3.63,5.8,5.66,18.19,20.77,27.65s30.31,12.44,34,6.63l4.41-7.08-4.7-.26c-2.68-6.14-10.24-13.9-20.48-20.33"/></g><g id="g161"><path id="path163" class="cls-7" d="M295.37,396.92c15.11,9.46,24.4,21.85,20.75,27.65s-18.83,2.85-33.94-6.61-24.41-21.87-20.77-27.67,18.79-2.89,34,6.63"/></g><g id="g165"><path id="path167" class="cls-8" d="M293.76,399.3c12.9,8.07,21,18.21,18.2,22.67s-15.48,1.62-28.33-6.45-21-18.2-18.22-22.67,15.5-1.61,28.35,6.45"/></g><g id="g169"><path id="path171" class="cls-9" d="M404.68,481.86H393.55c-5.85,0-11.78,0-14.19-.16-4.91-.27-20.43.28-24-5.18s-5.69-25.71-8.16-29-12-9.05-15.62-12.16-4.65-8.9,0-8.9,21.72,8.06,27.15,12.16,5.94,12.22,16.79,15.56a73.84,73.84,0,0,0,21.88,2.76h1.1Z"/></g><g id="g173"><path id="path175" class="cls-9" d="M348.73,445.29s-14.13-.77-16.13-1.16a61,61,0,0,1-8.45-3.9s.26,7.56,1.62,9.19l2.16,2.6s-.26,4.46,1.29,6.36a21.86,21.86,0,0,0,2.83,2.94s-.59,4.47.52,6.37a9.1,9.1,0,0,0,3.53,3,9.24,9.24,0,0,0,.78,4.05,8.17,8.17,0,0,0,5.25,3.63c2.76.68,25.61,2.8,25.61,2.8l-4.4-16.33"/></g><g id="g177"><path id="path179" class="cls-10" d="M404.68,481.86H393.55l3.81-25h1.1Z"/></g><g id="g181"><path id="path183" class="cls-4" d="M488.3,286.33c1.71,4.84,3.12,9.77,4.49,14.71s2.51,9.95,3.64,15v.32l-.23.26L484.64,330.5v-1.07L496.41,347l.31.45-.24.52c-4.65,9.2-9,18.57-13.35,27.94s-8.47,18.83-12.37,28.38-7.69,19.17-10.9,29c-.81,2.46-1.61,4.92-2.32,7.39s-1.42,4.95-2.08,7.45-1.2,5-1.62,7.55l-.64,3.82c-.18,1.27-.31,2.56-.45,3.85.08-1.29.14-2.6.27-3.87s.28-2.58.47-3.87c.39-2.55.87-5.09,1.4-7.63q1.62-7.59,3.95-15c1.49-5,3.23-9.87,4.84-14.76s3.53-9.67,5.47-14.51c3.83-9.68,7.93-19.13,12.19-28.56s8.77-18.74,13.46-28v.95L483.14,330.5l-.37-.57.44-.5,11.85-13.65-.15.58c-.93-5-2-10-3.09-15s-2.32-10-3.68-14.92"/></g><g id="g185"><path id="path187" class="cls-4" d="M393.55,323.39c-.54,4-1.17,8-1.77,11.95s-1.24,8-1.89,11.93l-.19-.58,6.08,5.42.31.27-.08.44c-1.25,7.41-2.71,14.78-4.07,22.18l-.13-.69c3.4,5.58,6.74,11.19,9.95,16.87s6.45,11.38,9.53,17.12,6,11.59,8.87,17.46c1.42,2.94,2.73,5.94,4,8.95.66,1.5,1.21,3,1.82,4.55s1,3.11,1.61,4.66c-.63-1.52-1.19-3.05-1.87-4.51s-1.32-3-2-4.44c-1.42-2.93-3-5.8-4.46-8.71s-3-5.75-4.62-8.59l-4.84-8.53q-4.85-8.52-9.68-17l-9.88-16.87L390,375l.08-.36c1.48-7.37,2.87-14.75,4.45-22.11l.24.73-5.87-5.63-.25-.24V347c.77-4,1.61-7.9,2.4-11.83s1.61-7.89,2.51-11.82"/></g><g id="g189"><path id="path191" class="cls-3" d="M473.08,272.76s64.26-9.52,86.43,1.16c50.65,24.36,83.54,192,65.13,219.42-36.27,12.11-224.14,8-224.14,8l-2.12-44.39,125.16-13.69s-8.07-75.78-10.37-101c-5.69-63-40.09-69.46-40.09-69.46"/></g><g id="g193"><path id="path195" class="cls-11" d="M464.12,273.85l9-1.16S439.91,409.75,437.3,437.45c-2,21.53-39.54-83.52-35.47-125.32l8.16-7.71Z"/></g><g id="g197"><path id="path199" class="cls-9" d="M464.1,273.85s-23.36,59-41.09,58.57-12-22.21-12-22.21l-12.52-16.9s.09-2.67.37-6.91c1.25-18.74,6.2-67.73,22.76-47.23,20.31,25.06,42.51,34.68,42.51,34.68"/></g><g id="g201"><path id="path203" class="cls-10" d="M411,310.21l-12.52-16.9s.09-2.67.37-6.91L415,247.31s3.65,31.72-3.88,62.89"/></g><g id="g205"><path id="path207" class="cls-12" d="M302.08,244.73s5.51,22.87,24.19,18.74-18.13-37.22-18.13-37.22"/></g><g id="g209"><path id="path211" class="cls-13" d="M308.66,277.77,328,263.93l3,7.12-17.25,17"/></g><g id="g213"><path id="path215" class="cls-9" d="M307.06,241.62c9.48,34.89,43.54,88.91,63.76,85.72s29.41-21.25,40.39-45.35,13.46-56.32,7.43-72.56-23-49.29-59.14-44.71-58.21,55.6-52.44,76.88"/></g><g id="g217"><path id="path219" class="cls-14" d="M335.12,276.9c1.48,2.5,1.42,5.27-.13,6.19s-4-.37-5.48-2.87-1.42-5.27.13-6.19,4,.37,5.48,2.87"/></g><g id="g221"><path id="path223" class="cls-14" d="M335.17,269.53a8.37,8.37,0,0,0-6.74-1.84c-2.23.65-3,2.71-3.37,4.84-.17.79-1.52.77-1.47-.1a6.45,6.45,0,0,1,4.08-6.16c3-1,6,.58,8.29,2.39.62.48-.17,1.39-.79.93"/></g><g id="g225"><path id="path227" class="cls-14" d="M362,260.84c1.8,2.27,2.14,5,.74,6.16s-4,.18-5.84-2.1-2.14-5-.74-6.14,4-.18,5.84,2.08"/></g><g id="g229"><path id="path231" class="cls-14" d="M361,253.49a8.33,8.33,0,0,0-6.93-.87c-2.11.93-2.58,3.08-2.68,5.17,0,.82-1.38,1-1.46.13a6.46,6.46,0,0,1,3.22-6.68c2.86-1.4,6-.25,8.55,1.21.69.41,0,1.39-.66,1"/></g><g id="g233"><path id="path235" class="cls-15" d="M431.27,225.85c1.42-16.13,12.27-52.07-8.16-68.61-12.56-10.18-28.2-7.48-35.47-5.44-4.21-21-23.71-27.62-23.71-27.62,8.5,5.58,12.29,14.16,14,20.79-7.19-8.5-20.77-19.55-38.87-11.81-20.26,8.65-22.82,33-44,51.09-18,15.38-29.91,8.86-29.91,8.86s-4.42,8.33-2.39,22.72a37.91,37.91,0,0,0,42.65,32.46,38.58,38.58,0,0,0,8.13-2l.9-.36c20.88-8.27,31.82-19.64,31.82-19.64s5.06,9.6,14,10.63,28.25,9.25,30.63,8.22-10.53-18-2.06-25.44c6-5.36,19.72,8.06,30.31,18.77,7.82,7.9,14,13.41,14,13.41s-3.37-9.79-2-26"/></g><g id="g237"><path id="path239" class="cls-16" d="M345.5,280.82s5.81,17.06,7.89,18,7.35-3.35,7.35-3.35"/></g><g id="g241"><g id="g255"><g class="cls-17"><g id="g253" class="cls-18"><g id="g251"><path id="path249" class="cls-6" d="M314.3,266.84,357.84,239A12,12,0,0,1,373,241c4.21,4.48,10.21,15.9,10.43,23,.36,11-27,16.74-34.65,22.58-5.27,4-14.19,18.59-25.44,11-3.79-2.57-11.52-10.82-13.66-15.56a12,12,0,0,1,4.56-15.18"/></g></g></g></g></g><g id="g257"><path id="path259" class="cls-19" d="M314.3,266.84,357.84,239A12,12,0,0,1,373,241c4.21,4.48,10.21,15.9,10.43,23,.36,11-27,16.74-34.65,22.58-5.27,4-14.19,18.59-25.44,11-3.79-2.57-11.52-10.82-13.66-15.56A12,12,0,0,1,314.3,266.84Z"/></g><g id="g261"><path id="path263" class="cls-13" d="M368.62,238,388,224.17l3,7.11-14.29,14.61"/></g><g id="g265"><path id="path267" class="cls-9" d="M390.51,241.62s-8.82-17.38-2.18-24.3c7.93-8.23,16.8.27,21.46,6.85s10.47,29.12,1.29,27.67"/></g><g id="g269"><path id="path271" class="cls-20" d="M357.9,313.91a43.34,43.34,0,0,0,16.8-11.55"/></g><g id="g273"><path id="path275" class="cls-10" d="M394.36,224.11c1,7.61,5.6,15.32,12.9,18.4a.93.93,0,0,0,.92-1.62c-6.32-4.14-10.76-9.43-12.05-17.06-.16-1-1.9-.77-1.75.23"/></g><g id="g277"><path id="path279" class="cls-10" d="M400.75,226.25c-2,3.4-2.31,8.22.24,11.43.59.75,1.84,0,1.61-.92-1.06-3.33-1.69-6.19-.21-9.57.47-1.07-1-2-1.61-.94"/></g><g id="g281"><path id="path283" class="cls-7" d="M517.8,399l-37.62,1.32a1.43,1.43,0,0,1-1.49-1.38h0l-.29-8.24a1.45,1.45,0,0,1,1.39-1.48h0l37.62-1.32a1.41,1.41,0,0,1,1.48,1.35v0l.29,8.26A1.46,1.46,0,0,1,517.8,399"/></g><g id="g285"><path id="path287" class="cls-4" d="M517.12,338.87c1.27,8.67,2.5,17.32,3.9,26l2.18,12.9,2.24,12.9q4.62,25.8,10,51.45l.42,2-2,.22-16.88,1.95L500,448.1c-11.28,1.14-22.57,2.37-33.86,3.38l-16.91,1.62c-5.63.53-11.29,1-16.94,1.43s-11.28.87-17,1.26-11.29.79-17,1.08c5.59-.9,11.28-1.69,16.82-2.5s11.28-1.61,16.83-2.32,11.29-1.47,16.87-2.16,11.28-1.39,16.86-2.05c11.29-1.36,22.58-2.53,33.77-3.77l16.9-1.75,16.91-1.61-1.61,2.21q-2.57-12.9-4.72-25.8t-4.07-26c-1.29-8.66-2.37-17.35-3.37-26.06q-.75-6.45-1.4-13.06c-.47-4.34-.74-8.71-1.13-13.08"/></g><g id="g289"><path id="path291" class="cls-3" d="M452.81,267.47S471.28,261,484,273.74s-15.69,18.75-15.69,18.75,5.69-11.72-15.53-25"/></g><path id="path293" class="cls-21" d="M244.59,493.28H87v-19H244.59Z"/><path id="path295" class="cls-22" d="M244.59,493.28H87V480.54H244.59Z"/><g id="g297"><path id="path299" class="cls-23" d="M154.71,493.28H125.85v-48a14.51,14.51,0,1,1,28.86-3.05,14.14,14.14,0,0,1,0,3.05Z"/></g><g id="g301"><path id="path303" class="cls-24" d="M158.92,454.3l24.8-24.78"/></g><g id="g305"><path id="path307" class="cls-25" d="M96.55,290.49l-18.87,18.8L42.92,274.55l18.82-18.84Z"/></g><g id="g309"><path id="path311" class="cls-26" d="M41.24,277.9h0a5.44,5.44,0,0,1,0-7.69h0l15.89-15.89a5.43,5.43,0,0,1,7.68,0h0a5.44,5.44,0,0,1,0,7.69h0L48.93,277.9a5.43,5.43,0,0,1-7.68,0h0"/></g><g id="g313"><path id="path315" class="cls-23" d="M140.3,463.75h-1.82a79.54,79.54,0,0,1-42.7-145.46L105.45,331A63.61,63.61,0,0,0,154,446.32a6.73,6.73,0,0,1,1.61-.17A8.06,8.06,0,0,1,157,462a79.5,79.5,0,0,1-16.77,1.79"/></g><g id="g317"><path id="path319" class="cls-27" d="M96.31,315.15A81.86,81.86,0,0,0,138.43,466h1.87a81.33,81.33,0,0,0,17.25-1.83,10.36,10.36,0,0,0,8.24-10.1h0a10.29,10.29,0,0,0-10.11-10.33,9.53,9.53,0,0,0-2.13.24,61.27,61.27,0,0,1-44.63-112.46c-6-7.75-11.06-14.36-12.61-16.41m-1,6.27,6.91,9a65.92,65.92,0,0,0,52.36,118.1,4.78,4.78,0,0,1,1.13-.13,5.69,5.69,0,0,1,.9,11.28,77.49,77.49,0,0,1-16.28,1.73h-1.78a77.24,77.24,0,0,1-43.24-140"/></g><g id="g321"><path id="path323" class="cls-23" d="M154.71,342.56l-24.93,24.93L60,297.72l25-25Z"/></g><g id="g325"><path id="path327" class="cls-23" d="M169.77,370.75l-11.7,11.65-21.61-21.6,11.71-11.71Z"/></g><g id="g329"><path id="path331" class="cls-23" d="M210.28,387.24l-42.59,42.59a2.56,2.56,0,0,1-3.62,0h0l-9-9a2.56,2.56,0,0,1,0-3.63h0l42.58-42.59a2.57,2.57,0,0,1,3.63,0h0l9,9a2.57,2.57,0,0,1,0,3.63h0"/></g><g id="g333"><path id="path335" class="cls-23" d="M205.62,416.62,178.8,443.44a1.62,1.62,0,0,1-2.28,0h0l-5.69-5.68a1.62,1.62,0,0,1,0-2.28h0l26.82-26.81a1.6,1.6,0,0,1,2.28,0h0l5.69,5.67a1.61,1.61,0,0,1,0,2.28h0"/></g><g id="g337"><path id="path339" class="cls-22" d="M129.78,367.49l14.9,1.61,11.71-11.71-1.61-14.8Z"/></g><g id="g341"><path id="path343" class="cls-21" d="M146.44,456a6,6,0,1,1-6-6,6,6,0,0,1,6,6"/></g><g id="g345"><path id="path347" class="cls-22" d="M114.77,328.82a21.29,21.29,0,1,1-21.28-21.28,21.29,21.29,0,0,1,21.28,21.28h0"/></g><g id="g349"><path id="path351" class="cls-23" d="M102.23,328.82a8.78,8.78,0,1,1-8.78-8.77h0a8.76,8.76,0,0,1,8.76,8.76h0"/></g><g id="g353"><path id="path355" class="cls-28" d="M145.55,438.44l24.8-24.79"/></g><g id="g357"><path id="path359" class="cls-29" d="M219.1,476.35s6.9-11.87,44.37-7.55c9.68,1.13,29.17,7.55,35,16"/></g><g id="g361"><path id="path363" class="cls-30" d="M303.8,493.28H217.07a2.36,2.36,0,0,1-2.32-2.36V473.49a2.3,2.3,0,0,1,2.32-2.29l.27,0,86.09,11.43a3.22,3.22,0,0,1,2.79,3.23V491a2.33,2.33,0,0,1-2.32,2.35h0"/></g><g id="g365"><path id="path367" class="cls-7" d="M549.93,387.69v83.53a9.18,9.18,0,0,0,18.35,0V387.69Z"/></g><g id="g369"><path id="path371" class="cls-11" d="M565.9,430.78v39.59a6.79,6.79,0,0,1-13.58,0V430.78Z"/></g><g id="g373"><path id="path375" class="cls-7" d="M568.17,391.68H549.69a3.23,3.23,0,0,1,0-6.31h18.48a3.23,3.23,0,0,1,0,6.31"/></g><g id="g377"><g id="g389"><g class="cls-31"><g id="g387" class="cls-18"><path id="path385" class="cls-7" d="M568.28,393.69H549.93v-2h18.35Z"/></g></g></g></g><g id="g391"><path id="path393" class="cls-7" d="M589.84,387.69v83.53a9.19,9.19,0,0,0,18.37,0V387.69Z"/></g><g id="g395"><path id="path397" class="cls-32" d="M605.81,410.14v60.19a6.79,6.79,0,0,1-13.57,0V410.14Z"/></g><g id="g399"><path id="path401" class="cls-7" d="M608.08,391.68H589.62a3.23,3.23,0,1,1-1.36-6.31,3.12,3.12,0,0,1,1.36,0h18.46a3.23,3.23,0,0,1,1.36,6.31,3.46,3.46,0,0,1-1.36,0"/></g><g id="g403"><g id="g415"><g class="cls-33"><g id="g413" class="cls-18"><path id="path411" class="cls-7" d="M608.19,393.69H589.84v-2h18.35Z"/></g></g></g></g><g id="g417"><path id="path419" class="cls-7" d="M629.77,387.69v83.53a9.18,9.18,0,0,0,18.35,0V387.69Z"/></g><g id="g421"><path id="path423" class="cls-29" d="M645.73,421.25v49.08a6.79,6.79,0,0,1-13.58,0V421.25Z"/></g><g id="g425"><path id="path427" class="cls-7" d="M648,391.68H629.52a3.23,3.23,0,0,1,0-6.31H648a3.23,3.23,0,0,1,0,6.31"/></g><g id="g429"><g id="g441"><g class="cls-34"><g id="g439" class="cls-18"><path id="path437" class="cls-7" d="M648.12,393.69H629.77v-2h18.35Z"/></g></g></g></g><g id="g443"><path id="path445" class="cls-35" d="M661.06,407.33H536.63a3.85,3.85,0,1,1-.5-7.69H661.06a3.85,3.85,0,1,1,.5,7.69h-.5"/></g><g id="g447"><path id="path449" class="cls-35" d="M672.55,493.28H525.15a4.56,4.56,0,0,1-4.56-4.56h0a4.57,4.57,0,0,1,4.56-4.57h147.4a4.57,4.57,0,0,1,4.56,4.57h0a4.56,4.56,0,0,1-4.56,4.56h0"/></g><path id="path451" class="cls-35" d="M542.27,486.22h-3.58V407.33h3.58Z"/><path id="path453" class="cls-35" d="M659,486.22h-3.58V407.33H659Z"/><g id="g455"><g id="g469"><g class="cls-36"><g id="g467" class="cls-37"><g id="g465"><path id="path463" class="cls-30" d="M476.24,221.72h-9.95a2.14,2.14,0,0,1-2.16-2.13h0v-10a2.16,2.16,0,0,1,2.16-2.16h10a2.16,2.16,0,0,1,2.17,2.16h0v10a2.15,2.15,0,0,1-2.15,2.15h0"/></g></g></g></g></g><g id="g471"><g id="g485"><g class="cls-38"><g id="g483" class="cls-39"><g id="g481"><path id="path479" class="cls-30" d="M497.83,221.72h-10a2.15,2.15,0,0,1-2.2-2.1V209.55a2.16,2.16,0,0,1,2.16-2.16h10a2.16,2.16,0,0,1,2.15,2.16v10a2.15,2.15,0,0,1-2.15,2.15h0"/></g></g></g></g></g><g id="g487"><g id="g501"><g class="cls-40"><g id="g499" class="cls-41"><g id="g497"><path id="path495" class="cls-30" d="M519.41,221.72h-10a2.13,2.13,0,0,1-2.14-2.11v-10a2.14,2.14,0,0,1,2.12-2.16h10a2.16,2.16,0,0,1,2.16,2.16h0v10a2.15,2.15,0,0,1-2.15,2.15h0"/></g></g></g></g></g><g id="g503"><path id="path505" class="cls-30" d="M541,221.72H531a2.14,2.14,0,0,1-2.15-2.14h0v-10a2.16,2.16,0,0,1,2.15-2.16h10a2.15,2.15,0,0,1,2.16,2.16h0v10a2.14,2.14,0,0,1-2.14,2.15h0"/></g><g id="g507"><path id="path509" class="cls-30" d="M583.47,221.72h-10a2.14,2.14,0,0,1-2.16-2.13h0v-10a2.16,2.16,0,0,1,2.16-2.16h10a2.16,2.16,0,0,1,2.15,2.16v10a2.15,2.15,0,0,1-2.15,2.15h0"/></g><g id="g511"><g id="g525"><g class="cls-42"><g id="g523" class="cls-37"><g id="g521"><path id="path519" class="cls-30" d="M279.13,346h-10a2.16,2.16,0,0,1-2.14-2.16v-10a2.16,2.16,0,0,1,2.14-2.14h10a2.16,2.16,0,0,1,2.16,2.14v10a2.15,2.15,0,0,1-2.16,2.16"/></g></g></g></g></g><g id="g527"><g id="g541"><g class="cls-43"><g id="g539" class="cls-39"><g id="g537"><path id="path535" class="cls-30" d="M300.72,346h-10a2.15,2.15,0,0,1-2.16-2.16v-10a2.15,2.15,0,0,1,2.16-2.14h10a2.16,2.16,0,0,1,2.15,2.14v10a2.16,2.16,0,0,1-2.15,2.16"/></g></g></g></g></g><g id="g543"><g id="g557"><g class="cls-44"><g id="g555" class="cls-41"><g id="g553"><path id="path551" class="cls-30" d="M322.3,346h-10a2.14,2.14,0,0,1-2.14-2.14v-10a2.14,2.14,0,0,1,2.14-2.14h10a2.16,2.16,0,0,1,2.16,2.14v10A2.16,2.16,0,0,1,322.3,346h0"/></g></g></g></g></g><g id="g559"><path id="path561" class="cls-30" d="M343.87,346h-10a2.16,2.16,0,0,1-2.15-2.16v-10a2.16,2.16,0,0,1,2.15-2.14h10a2.15,2.15,0,0,1,2.16,2.14v10a2.15,2.15,0,0,1-2.16,2.16h0"/></g><g id="g563"><g id="g577"><g class="cls-45"><g id="g575" class="cls-37"><g id="g573"><path id="path571" class="cls-30" d="M374.38,109.49h-5.46a1.18,1.18,0,0,1-1.17-1.18v-5.45a1.17,1.17,0,0,1,1.15-1.17h5.48a1.17,1.17,0,0,1,1.18,1.17v5.42a1.18,1.18,0,0,1-1.18,1.18"/></g></g></g></g></g><g id="g579"><g id="g593"><g class="cls-46"><g id="g591" class="cls-39"><g id="g589"><path id="path587" class="cls-30" d="M386.1,109.49h-5.46a1.18,1.18,0,0,1-1.18-1.18v-5.45a1.17,1.17,0,0,1,1.18-1.17h5.46a1.17,1.17,0,0,1,1.18,1.17v5.42a1.18,1.18,0,0,1-1.18,1.18"/></g></g></g></g></g><g id="g595"><g id="g609"><g class="cls-47"><g id="g607" class="cls-41"><g id="g605"><path id="path603" class="cls-30" d="M397.89,109.49h-5.46a1.18,1.18,0,0,1-1.18-1.18v-5.45a1.17,1.17,0,0,1,1.18-1.17h5.46a1.16,1.16,0,0,1,1.16,1.16h0v5.42a1.17,1.17,0,0,1-1.16,1.18"/></g></g></g></g></g><g id="g611"><path id="path613" class="cls-30" d="M409.66,109.49h-5.45a1.17,1.17,0,0,1-1.17-1.18v-5.45a1.17,1.17,0,0,1,1.17-1.17h5.45a1.16,1.16,0,0,1,1.18,1.14v5.45a1.18,1.18,0,0,1-1.18,1.18"/></g><g id="g615"><path id="path617" class="cls-48" d="M213.94,272.19c10.27,12.66,14.51,26.28,9.32,30.44s-17.59-2.72-27.86-15.36S181,261,186.08,256.82,203.67,259.55,213.94,272.19Z"/></g><g id="g619"><path id="path621" class="cls-48" d="M215.81,284c-5.85,15.21-15.58,25.63-21.74,23.25s-6.45-16.62-.54-31.83,15.57-25.6,21.73-23.23S221.66,268.8,215.81,284Z"/></g><g id="g623"><path id="path625" class="cls-48" d="M206.57,291.51c16.13-2.6,28.27-10,27.22-16.48s-14.93-9.68-31-7.1-28.33,10-27.21,16.48S190.56,294.1,206.57,291.51Z"/></g><g id="g627"><path id="path629" class="cls-29" d="M202.07,279.79a3.8,3.8,0,1,1-5.35-.55h0a3.81,3.81,0,0,1,5.35.55"/></g><g id="g631"><path id="path633" class="cls-29" d="M211.65,279a3.81,3.81,0,1,1-5.35-.56,3.81,3.81,0,0,1,5.35.56l0,0"/></g><g id="g635"><path id="path637" class="cls-29" d="M207,271.92a2.31,2.31,0,1,1-3.12-.33,2.3,2.3,0,0,1,3.12.33"/></g><g id="g639"><path id="path641" class="cls-49" d="M245.38,279.72A40.68,40.68,0,1,1,204.7,239,40.68,40.68,0,0,1,245.38,279.72Z"/></g><g id="g643"><path id="path645" class="cls-50" d="M223.34,315.86l38.93,62.63"/></g><g id="g647"><path id="path649" class="cls-30" d="M267.15,378.37a4.95,4.95,0,1,1-4.95-4.95,4.95,4.95,0,0,1,4.95,4.95v0"/></g><g id="g651"><path id="path653" class="cls-30" d="M289.81,269.92H253.53a1.91,1.91,0,0,1,0-3.81h36.3a1.91,1.91,0,0,1,0,3.81h0"/></g><g id="g655"><path id="path657" class="cls-30" d="M289.81,277.59H253.53a1.9,1.9,0,0,1,0-3.8h36.3a1.9,1.9,0,1,1,0,3.8h0"/></g><g id="g659"><path id="path661" class="cls-30" d="M271.38,285.17H253.53a1.9,1.9,0,0,1,0-3.8h17.87a1.9,1.9,0,1,1,0,3.8h0"/></g><g id="g663"><path id="path665" class="cls-30" d="M264.73,61.42a9.37,9.37,0,1,1-9.37-9.37h0a9.37,9.37,0,0,1,9.37,9.37"/></g><g id="g667"><path id="path669" class="cls-30" d="M281.1,81.61a7,7,0,1,1-7-7,7,7,0,0,1,7,7v0"/></g><g id="g671"><path id="path673" class="cls-30" d="M301.51,57.1a5,5,0,1,1-5-5.05h0a5.05,5.05,0,0,1,5,5.05"/></g><g id="g675"><path id="path677" class="cls-30" d="M264.73,103A11.77,11.77,0,1,1,253,91.22h0A11.77,11.77,0,0,1,264.73,103"/></g><g id="g679"><path id="path681" class="cls-30" d="M305.37,92.79a8.9,8.9,0,1,1-8.92-8.89h0a8.9,8.9,0,0,1,8.89,8.89"/></g><g id="g683"><path id="path685" class="cls-49" d="M255.4,61.42l18.73,20.19L253,103"/></g><g id="g687"><path id="path689" class="cls-49" d="M296.48,57.1,274.13,81.61l22.35,11.18"/></g><g id="g691"><path id="path693" class="cls-30" d="M376.11,70.2H329.65a1.92,1.92,0,0,1,0-3.83h46.46a1.92,1.92,0,0,1,0,3.83"/></g><g id="g695"><path id="path697" class="cls-30" d="M373.41,61.26H332.34a4.61,4.61,0,0,1,0-9.21h41.07a4.61,4.61,0,0,1,0,9.21"/></g><g id="g699"><path id="path701" class="cls-30" d="M353.27,77.81H329.65a1.91,1.91,0,0,1,0-3.81h23.62a1.91,1.91,0,1,1,0,3.81"/></g><g id="g703"><path id="path705" class="cls-30" d="M376.11,77.81H359.56a1.91,1.91,0,0,1,0-3.81h16.55a1.91,1.91,0,0,1,0,3.81h0"/></g><g id="g707"><path id="path709" class="cls-30" d="M347.52,85.43H329.65a1.9,1.9,0,1,1,0-3.8h17.87a1.9,1.9,0,1,1,0,3.8"/></g><g id="g711"><path id="path713" class="cls-49" d="M312,123.2H236.68a4.08,4.08,0,0,1-4.08-4.08V43.78a4.08,4.08,0,0,1,4.08-4.08H312a4.07,4.07,0,0,1,4.06,4.07h0v75.34A4.08,4.08,0,0,1,312,123.2Z"/></g><g id="g715"><path id="path717" class="cls-51" d="M624.53,269.11C620,282.37,612,291.69,606.64,289.82s-6.06-14.05-1.61-27.3,12.5-22.58,17.87-20.71S629,255.86,624.53,269.11Z"/></g><g id="g719"><path id="path721" class="cls-51" d="M616.79,275.88c-13.74,2.71-25.8.39-26.87-5.17s9.16-12.26,22.9-15,25.8-.38,26.86,5.18S630.52,273.17,616.79,275.88Z"/></g><g id="g723"><path id="path725" class="cls-51" d="M607.1,272.59c9.25,10.52,20.2,16,24.46,12.26s.19-15.3-9-25.8-20.19-16-24.44-12.26S597.86,262.08,607.1,272.59Z"/></g><g id="g727"><path id="path729" class="cls-30" d="M615.48,269.53a2.29,2.29,0,1,1-1.44-2.9h0a2.27,2.27,0,0,1,1.45,2.87v0"/></g><g id="g731"><path id="path733" class="cls-30" d="M669.14,306.62a1.49,1.49,0,0,1-1.88.92h0a1.48,1.48,0,1,1,1.89-.93h0"/></g><g id="g735"><path id="path737" class="cls-30" d="M614.64,262.61a3.12,3.12,0,1,1,0-.08l0,.08"/></g><g id="g739"><path id="path741" class="cls-30" d="M633.86,286a3.07,3.07,0,1,1,0-.1l0,.1"/></g><g id="g743"><path id="path745" class="cls-30" d="M622.16,265.18a3,3,0,1,1-1.86-3.78,3,3,0,0,1,1.86,3.78"/></g><g id="g747"><path id="path749" class="cls-30" d="M698.14,312.79H674a1,1,0,0,1,0-2h24.19a1,1,0,0,1,.25,2h-.25"/></g><g id="g751"><path id="path753" class="cls-30" d="M696.73,308.13H675.29a2.42,2.42,0,1,1,0-4.83h21.44a2.42,2.42,0,1,1,0,4.83"/></g><g id="g755"><path id="path757" class="cls-30" d="M686.22,316.78H673.88a1,1,0,0,1-.25-2,1,1,0,0,1,.25,0h12.34a1,1,0,0,1,0,2"/></g><g id="g759"><path id="path761" class="cls-30" d="M698.14,316.78h-8.65a1,1,0,0,1,0-2h8.65a1,1,0,0,1,.25,2,1,1,0,0,1-.25,0"/></g><g id="g763"><path id="path765" class="cls-30" d="M683.2,320.76h-9.33a1,1,0,0,1,0-2h9.33a1,1,0,1,1,.26,2h-.26"/></g><g id="g767"><path id="path769" class="cls-52" d="M630.9,284.85l21.28,21.27h15.56"/></g><g id="g771"><path id="path773" class="cls-30" d="M507.23,131.15a9.37,9.37,0,1,1,12.67-3.9h0a9.37,9.37,0,0,1-12.66,3.89"/></g><g id="g775"><path id="path777" class="cls-30" d="M480.18,139.13a10.34,10.34,0,1,1,14-4.31h0a10.33,10.33,0,0,1-14,4.31"/></g><g id="g779"><path id="path781" class="cls-30" d="M490.48,156.66a5,5,0,1,1,6.82-2.1h0a5.05,5.05,0,0,1-6.82,2.1"/></g><g id="g783"><path id="path785" class="cls-30" d="M470.5,111.7a11.77,11.77,0,1,1,15.93-4.85h0a11.8,11.8,0,0,1-15.92,4.84"/></g><g id="g787"><path id="path789" class="cls-30" d="M460.5,152.35a8.89,8.89,0,1,1,12-3.69,8.89,8.89,0,0,1-12,3.69h0"/></g><g id="g791"><path id="path793" class="cls-30" d="M484.37,131.15l-9.27-29.58,1.82-.56,8.72,27.81,25.8-6.88.5,1.85Z"/></g><g id="g795"><path id="path797" class="cls-30" d="M491.93,152.54l-7.4-21-19.35,13.77-1.11-1.61,21.36-15.24,8.28,23.48Z"/></g><g id="g799"><path id="path801" class="cls-49" d="M612.93,166H448.06a5.36,5.36,0,0,1-5.39-5.35V90.83a5.39,5.39,0,0,1,5.37-5.4H612.93a5.39,5.39,0,0,1,5.39,5.39h0v69.81A5.36,5.36,0,0,1,613,166Z"/></g><g id="g803"><path id="path805" class="cls-49" d="M530.49,85.43v80.63"/></g><g id="g807"><path id="path809" class="cls-49" d="M530.49,105.59h87.83"/></g><g id="g811"><path id="path813" class="cls-49" d="M530.49,125.73h87.83"/></g><g id="g815"><path id="path817" class="cls-49" d="M530.49,145.89h87.83"/></g><g id="g819"><path id="path821" class="cls-49" d="M552.82,85.43v80.63"/></g><g id="g823"><path id="path825" class="cls-49" d="M574.41,85.43v80.63"/></g><g id="g827"><path id="path829" class="cls-49" d="M596.73,85.43v80.63"/></g><g id="g831"><path id="path833" class="cls-53" d="M535.11,95.79l4.24,4.24,9.15-9.13"/></g><g id="g835"><path id="path837" class="cls-53" d="M578.93,135.92l4.25,4.26,9.13-9.15"/></g><g id="g839"><path id="path841" class="cls-53" d="M557.09,157.29l4.24,4.24,9.15-9.13"/></g><g id="g843"><path id="path845" class="cls-54" d="M695.27,510.44H51.14a8.57,8.57,0,0,1-8.56-8.57h0a8.58,8.58,0,0,1,8.56-8.58H695.27a8.58,8.58,0,0,1,8.57,8.58h0a8.57,8.57,0,0,1-8.57,8.57"/></g><g id="g847"><path id="path849" class="cls-55" d="M164,522H345.5"/></g><g id="g851"><path id="path853" class="cls-55" d="M365,522H444.3"/></g></g></svg>